<svg xmlns:dc="http://purl.org/dc/elements/1.1/" xmlns:cc="http://creativecommons.org/ns#" xmlns:rdf="http://www.w3.org/1999/02/22-rdf-syntax-ns#" xmlns:svg="http://www.w3.org/2000/svg" xmlns="http://www.w3.org/2000/svg" xmlns:sodipodi="http://sodipodi.sourceforge.net/DTD/sodipodi-0.dtd" xmlns:inkscape="http://www.inkscape.org/namespaces/inkscape" sodipodi:docname="multipage-export-vsbnutwc.svg" inkscape:version="1.0 (4035a4fb49, 2020-05-01)" id="svg8" version="1.1" viewBox="0 0 50.800002 50.184763" height="189.67468" width="192.00002">
  <defs id="defs2">
    <clipPath id="clipPath1581" clipPathUnits="userSpaceOnUse">
      <rect style="opacity:0.708333;fill:#f2f2f2;fill-opacity:1;fill-rule:evenodd;stroke:none;stroke-width:2.71037;stroke-linecap:round;stroke-linejoin:miter;stroke-miterlimit:4;stroke-dasharray:none" id="rect1583" width="285.75" height="508" x="-15.892686" y="-746.16913"/>
    </clipPath>
  </defs>
  <sodipodi:namedview inkscape:snap-intersection-paths="true" inkscape:snap-smooth-nodes="false" inkscape:object-paths="true" inkscape:window-maximized="1" inkscape:window-y="-8" inkscape:window-x="-8" inkscape:window-height="1017" inkscape:window-width="1920" inkscape:bbox-nodes="true" inkscape:bbox-paths="false" inkscape:snap-bbox-midpoints="true" inkscape:snap-global="true" inkscape:snap-bbox-edge-midpoints="false" inkscape:snap-bbox="true" inkscape:snap-center="false" inkscape:snap-object-midpoints="true" inkscape:snap-midpoints="true" units="px" showgrid="false" inkscape:document-rotation="0" inkscape:current-layer="layer1" inkscape:document-units="px" inkscape:cy="3032.214" inkscape:cx="-745.55966" inkscape:zoom="0.70710678" inkscape:pageshadow="2" inkscape:pageopacity="0.0" borderopacity="1.0" bordercolor="#666666" pagecolor="#ffffff" id="base" inkscape:lockguides="false"/>
  <metadata id="metadata5">
    <rdf:RDF>
      <cc:Work rdf:about="">
        <dc:format>image/svg+xml</dc:format>
        <dc:type rdf:resource="http://purl.org/dc/dcmitype/StillImage"/>
        <dc:title/>
      </cc:Work>
    </rdf:RDF>
  </metadata>
  <g transform="translate(305.34674,-732.3566)" id="layer1" inkscape:groupmode="layer" inkscape:label="Layer 1">
    <g id="g1526">
      <rect style="fill:#44aa00;fill-rule:evenodd;stroke:none;stroke-width:1.85208;stroke-linecap:round;stroke-linejoin:round;paint-order:markers fill stroke" id="rect1473" width="50.800003" height="50.184486" x="-305.34674" y="732.35687" ry="9.8105001"/>
      <path d="m -303.9644,743.18412 c -0.48167,0 -0.94588,0.0729 -1.38234,0.20722 v 28.11558 c 0.43646,0.13433 0.90067,0.20672 1.38234,0.20672 h 23.54173 c 2.58476,0 4.66585,-2.08061 4.66585,-4.66535 v -19.19833 c 0,-2.58474 -2.08109,-4.66584 -4.66585,-4.66584 z m 40.34638,4.69841 c -0.20698,-0.003 -0.4195,0.0296 -0.63407,0.10388 l -7.02179,2.42983 c -1.71646,0.59391 -3.27835,1.46253 -3.27835,3.27885 v 3.75377 3.75378 c 0,1.81634 1.56189,2.68494 3.27835,3.27887 l 7.02179,2.42983 c 1.71648,0.59396 3.27835,-1.46256 3.27835,-3.27887 v -6.18361 -6.1836 c 0,-1.58927 -1.19543,-3.36217 -2.64428,-3.38273 z" style="fill:#ccffaa;fill-rule:evenodd;stroke:none;stroke-width:1.32292;stroke-linecap:round;stroke-linejoin:round;stroke-miterlimit:4;stroke-dasharray:none;paint-order:markers fill stroke" id="rect1487"/>
      <path d="m -294.64579,732.35662 a 0.66145838,0.66145838 0 0 0 0,5e-4 v 31.41618 l 0.002,0.0253 c 0.28842,3.8172 2.12045,7.47241 5.00589,9.98802 2.88544,2.51563 6.75524,3.83228 10.57611,3.59772 4.17798,-0.25648 8.18031,-2.37328 10.74248,-5.68338 2.56217,-3.31007 3.60757,-7.71363 2.80863,-11.82253 -0.79896,-4.10888 -3.41939,-7.79913 -7.03524,-9.90791 -3.61582,-2.10881 -8.11848,-2.57215 -12.08815,-1.24439 a 0.66145838,0.66145838 0 0 0 -0.41601,0.8382 0.66145838,0.66145838 0 0 0 0.83614,0.41601 c 3.59394,-1.20211 7.72832,-0.77648 11.0019,1.13273 3.27361,1.90921 5.67889,5.29754 6.40221,9.01753 0.72331,3.71999 -0.23678,7.76486 -2.55643,10.76164 -2.31966,2.99675 -5.99311,4.93956 -9.77564,5.17175 -3.46203,0.2126 -7.01236,-0.99589 -9.62679,-3.27525 -2.61146,-2.27674 -4.29048,-5.6235 -4.55478,-9.07798 V 732.3571 a 0.66145838,0.66145838 0 0 0 0,-5e-4 z m 3.6468,0 a 0.66145838,0.66145838 0 0 0 0,5e-4 V 761.236 c -0.24006,2.04602 0.12131,4.1494 1.03508,5.99601 0.92189,1.86304 2.39151,3.43977 4.18526,4.49017 1.79377,1.05039 3.88913,1.56072 5.96503,1.45314 2.07587,-0.10758 4.10546,-0.83016 5.78104,-2.06034 2.12227,-1.55818 3.62548,-3.90689 4.15271,-6.48644 0.52721,-2.57953 0.0653,-5.32943 -1.27537,-7.5954 -1.34069,-2.26594 -3.52827,-3.99417 -6.04306,-4.77387 -2.51475,-0.7797 -5.29635,-0.59225 -7.68376,0.51781 a 0.66145838,0.66145838 0 0 0 -0.32038,0.879 0.66145838,0.66145838 0 0 0 0.87899,0.32041 c 2.08061,-0.96739 4.5429,-1.13271 6.7345,-0.4532 2.19157,0.6795 4.12636,2.20898 5.29476,4.18372 1.16837,1.97474 1.57877,4.40788 1.11932,6.65591 -0.45948,2.24806 -1.79107,4.32753 -3.64061,5.68545 -1.46323,1.07429 -3.25356,1.71267 -5.06635,1.8066 -1.81282,0.094 -3.66014,-0.35602 -5.22658,-1.27331 -1.56641,-0.91726 -2.86292,-2.30873 -3.66797,-3.93568 -0.8051,-1.62692 -1.1253,-3.50075 -0.90435,-5.30251 l 0.004,-0.0408 v -28.94553 a 0.66145838,0.66145838 0 0 0 0,-5e-4 z" style="color:#000000;font-style:normal;font-variant:normal;font-weight:normal;font-stretch:normal;font-size:medium;line-height:normal;font-family:sans-serif;font-variant-ligatures:normal;font-variant-position:normal;font-variant-caps:normal;font-variant-numeric:normal;font-variant-alternates:normal;font-variant-east-asian:normal;font-feature-settings:normal;font-variation-settings:normal;text-indent:0;text-align:start;text-decoration:none;text-decoration-line:none;text-decoration-style:solid;text-decoration-color:#000000;letter-spacing:normal;word-spacing:normal;text-transform:none;writing-mode:lr-tb;direction:ltr;text-orientation:mixed;dominant-baseline:auto;baseline-shift:baseline;text-anchor:start;white-space:normal;shape-padding:0;shape-margin:0;inline-size:0;clip-rule:nonzero;display:inline;overflow:visible;visibility:visible;opacity:1;isolation:auto;mix-blend-mode:normal;color-interpolation:sRGB;color-interpolation-filters:linearRGB;solid-color:#000000;solid-opacity:1;vector-effect:none;fill:#225500;fill-opacity:1;fill-rule:nonzero;stroke:none;stroke-width:1.32292;stroke-linecap:round;stroke-linejoin:miter;stroke-miterlimit:4;stroke-dasharray:none;stroke-dashoffset:0;stroke-opacity:1;color-rendering:auto;image-rendering:auto;shape-rendering:auto;text-rendering:auto;enable-background:accumulate;stop-color:#000000;stop-opacity:1" id="path1492"/>
    </g>
  </g>
</svg>