<svg xmlns:dc="http://purl.org/dc/elements/1.1/" xmlns:cc="http://creativecommons.org/ns#" xmlns:rdf="http://www.w3.org/1999/02/22-rdf-syntax-ns#" xmlns:svg="http://www.w3.org/2000/svg" xmlns="http://www.w3.org/2000/svg" xmlns:sodipodi="http://sodipodi.sourceforge.net/DTD/sodipodi-0.dtd" xmlns:inkscape="http://www.inkscape.org/namespaces/inkscape" width="500" height="500" viewBox="0 0 132.29166 132.29167" version="1.1" id="svg8" inkscape:version="1.0 (4035a4fb49, 2020-05-01)" sodipodi:docname="multipage-export-ld8rmy6q.svg">
  <defs id="defs2">
    <inkscape:path-effect effect="spiro" id="path-effect1538" is_visible="true" lpeversion="1"/>
    <inkscape:path-effect effect="spiro" id="path-effect1534" is_visible="true" lpeversion="1"/>
    <inkscape:path-effect effect="spiro" id="path-effect1522" is_visible="true" lpeversion="1"/>
    <inkscape:path-effect effect="spiro" id="path-effect1518" is_visible="true" lpeversion="1"/>
    <inkscape:path-effect lpeversion="1" is_visible="true" id="path-effect1497" effect="spiro"/>
    <inkscape:path-effect lpeversion="1" is_visible="true" id="path-effect1493" effect="spiro"/>
    <inkscape:path-effect effect="spiro" id="path-effect1498" is_visible="true" lpeversion="1"/>
    <inkscape:path-effect effect="spiro" id="path-effect1494" is_visible="true" lpeversion="1"/>
    <clipPath clipPathUnits="userSpaceOnUse" id="clipPath1581">
      <rect y="-746.16913" x="-15.892686" height="508" width="285.75" id="rect1583" style="opacity:0.708333;fill:#f2f2f2;fill-opacity:1;fill-rule:evenodd;stroke:none;stroke-width:2.71037;stroke-linecap:round;stroke-linejoin:miter;stroke-miterlimit:4;stroke-dasharray:none"/>
    </clipPath>
  </defs>
  <sodipodi:namedview inkscape:lockguides="false" id="base" pagecolor="#ffffff" bordercolor="#666666" borderopacity="1.0" inkscape:pageopacity="0.0" inkscape:pageshadow="2" inkscape:zoom="0.33510688" inkscape:cx="-5195.8063" inkscape:cy="3368.2441" inkscape:document-units="px" inkscape:current-layer="layer1" inkscape:document-rotation="0" showgrid="false" units="px" inkscape:snap-midpoints="true" inkscape:snap-object-midpoints="true" inkscape:snap-center="false" inkscape:snap-bbox="true" inkscape:snap-bbox-edge-midpoints="false" inkscape:snap-global="true" inkscape:snap-bbox-midpoints="true" inkscape:bbox-paths="false" inkscape:bbox-nodes="true" inkscape:window-width="1920" inkscape:window-height="1017" inkscape:window-x="-8" inkscape:window-y="-8" inkscape:window-maximized="1" inkscape:object-paths="true" inkscape:snap-smooth-nodes="true" inkscape:snap-intersection-paths="true"/>
  <metadata id="metadata5">
    <rdf:RDF>
      <cc:Work rdf:about="">
        <dc:format>image/svg+xml</dc:format>
        <dc:type rdf:resource="http://purl.org/dc/dcmitype/StillImage"/>
        <dc:title/>
      </cc:Work>
    </rdf:RDF>
  </metadata>
  <g transform="translate(1489.6368,-1003.6302)" inkscape:label="Layer 1" inkscape:groupmode="layer" id="layer1">
    <g id="bitLive_Logo_RoundRect_V2">
      <g id="g1545">
        <rect ry="16.580532" y="1003.6302" x="-1489.6368" height="132.29167" width="132.29167" id="rect1525" style="fill:#44aa00;stroke-width:0.120467"/>
        <path id="path1527" style="color:#000000;font-style:normal;font-variant:normal;font-weight:normal;font-stretch:normal;font-size:medium;line-height:normal;font-family:sans-serif;font-variant-ligatures:normal;font-variant-position:normal;font-variant-caps:normal;font-variant-numeric:normal;font-variant-alternates:normal;font-variant-east-asian:normal;font-feature-settings:normal;font-variation-settings:normal;text-indent:0;text-align:start;text-decoration:none;text-decoration-line:none;text-decoration-style:solid;text-decoration-color:#000000;letter-spacing:normal;word-spacing:normal;text-transform:none;writing-mode:lr-tb;direction:ltr;text-orientation:mixed;dominant-baseline:auto;baseline-shift:baseline;text-anchor:start;white-space:normal;shape-padding:0;shape-margin:0;inline-size:0;clip-rule:nonzero;display:inline;overflow:visible;visibility:visible;opacity:1;isolation:auto;mix-blend-mode:normal;color-interpolation:sRGB;color-interpolation-filters:linearRGB;solid-color:#000000;solid-opacity:1;vector-effect:none;fill:#225500;fill-opacity:1;fill-rule:nonzero;stroke:none;stroke-width:5.29167;stroke-linecap:butt;stroke-linejoin:miter;stroke-miterlimit:4;stroke-dasharray:none;stroke-dashoffset:0;stroke-opacity:1;color-rendering:auto;image-rendering:auto;shape-rendering:auto;text-rendering:auto;enable-background:accumulate;stop-color:#000000;stop-opacity:1" d="m -1479.3126,1004.847 c -1.9867,0.8058 -3.7785,1.9838 -5.2911,3.4499 v 61.4784 c 0,16.0326 6.5639,31.8761 17.9007,43.2129 11.3368,11.3368 27.1803,17.9002 43.2129,17.9002 16.0326,0 31.876,-6.5634 43.2129,-17.9002 11.3367,-11.3368 17.8986,-27.1803 17.8986,-43.2129 0,-13.7263 -4.7628,-27.3466 -13.3165,-38.0819 -8.5537,-10.7353 -20.767,-18.4208 -34.1468,-21.4865 l -1.1813,5.1583 c 12.1812,2.7911 23.4018,9.8514 31.1893,19.6252 7.7876,9.7737 12.1642,22.2881 12.1642,34.7849 0,14.5804 -6.0401,29.1627 -16.35,39.4726 -10.3099,10.3098 -24.8901,16.3499 -39.4704,16.3499 -14.5804,-10e-5 -29.1626,-6.0401 -39.4725,-16.3499 -10.3098,-10.3099 -16.35,-24.8922 -16.35,-39.4726 z"/>
        <path style="color:#000000;font-style:normal;font-variant:normal;font-weight:normal;font-stretch:normal;font-size:medium;line-height:normal;font-family:sans-serif;font-variant-ligatures:normal;font-variant-position:normal;font-variant-caps:normal;font-variant-numeric:normal;font-variant-alternates:normal;font-variant-east-asian:normal;font-feature-settings:normal;font-variation-settings:normal;text-indent:0;text-align:start;text-decoration:none;text-decoration-line:none;text-decoration-style:solid;text-decoration-color:#000000;letter-spacing:normal;word-spacing:normal;text-transform:none;writing-mode:lr-tb;direction:ltr;text-orientation:mixed;dominant-baseline:auto;baseline-shift:baseline;text-anchor:start;white-space:normal;shape-padding:0;shape-margin:0;inline-size:0;clip-rule:nonzero;display:inline;overflow:visible;visibility:visible;opacity:1;isolation:auto;mix-blend-mode:normal;color-interpolation:sRGB;color-interpolation-filters:linearRGB;solid-color:#000000;solid-opacity:1;vector-effect:none;fill:#225500;fill-opacity:1;fill-rule:nonzero;stroke:none;stroke-width:5.29167;stroke-linecap:butt;stroke-linejoin:miter;stroke-miterlimit:4;stroke-dasharray:none;stroke-dashoffset:0;stroke-opacity:1;color-rendering:auto;image-rendering:auto;shape-rendering:auto;text-rendering:auto;enable-background:accumulate;stop-color:#000000;stop-opacity:1" d="m -1465.1151,1003.6308 v 66.1446 c 0,9.4868 3.3352,18.8783 9.3164,26.2422 5.9812,7.3638 14.49,12.5531 23.7754,14.498 13.1272,2.7496 27.3246,-1.2513 37.084,-10.4512 9.7593,-9.1999 14.5899,-23.1378 12.6191,-36.4043 -1.8454,-12.4221 -9.5383,-23.7096 -20.4258,-29.9687 -10.8875,-6.2591 -24.5143,-7.2284 -36.1777,-2.5723 l 1.9629,4.9141 c 10.0943,-4.0298 22.1553,-3.1729 31.5781,2.2441 9.4229,5.4171 16.233,15.4092 17.8301,26.1602 1.7038,11.4694 -2.5802,23.8216 -11.0176,31.7754 -8.4374,7.9537 -21.0201,11.5002 -32.3691,9.123 -8.0641,-1.6891 -15.5575,-6.259 -20.752,-12.6543 -5.1945,-6.3953 -8.1309,-14.6671 -8.1308,-22.9062 v -66.1446 z" id="path1529"/>
        <path d="m -1452.4814,1042.6011 c -6.9515,0 -12.5474,5.5959 -12.5474,12.5474 v 24.2205 c 0,6.9516 5.5959,12.5485 12.5474,12.5485 h 32.1233 c 6.9515,0 12.5484,-5.5969 12.5484,-12.5485 v -24.2205 c 0,-6.9515 -5.5969,-12.5474 -12.5484,-12.5474 z m 66.9231,8.3765 a 3.5529999,3.5529999 0 0 0 -1.3521,0.2892 l -9.2776,3.9943 a 8.2015136,8.2015136 0 0 0 -4.9576,7.5326 v 4.3319 4.3318 a 8.2015136,8.2015136 0 0 0 4.9576,7.5336 l 9.2776,3.9933 a 3.5529999,3.5529999 0 0 0 4.9576,-3.2629 v -12.5958 -12.5959 a 3.5529999,3.5529999 0 0 0 -3.6055,-3.5521 z" style="fill:#ccffaa;stroke:none;stroke-width:5.29166;stroke-miterlimit:4;stroke-dasharray:none" id="path1531"/>
      </g>
    </g>
  </g>
</svg>