<svg xmlns:dc="http://purl.org/dc/elements/1.1/" xmlns:cc="http://creativecommons.org/ns#" xmlns:rdf="http://www.w3.org/1999/02/22-rdf-syntax-ns#" xmlns:svg="http://www.w3.org/2000/svg" xmlns="http://www.w3.org/2000/svg" xmlns:sodipodi="http://sodipodi.sourceforge.net/DTD/sodipodi-0.dtd" xmlns:inkscape="http://www.inkscape.org/namespaces/inkscape" width="500" height="500" viewBox="0 0 132.29166 132.29167" version="1.1" id="svg8" inkscape:version="1.0 (4035a4fb49, 2020-05-01)" sodipodi:docname="multipage-export-ld8rmy6q.svg">
  <defs id="defs2">
    <inkscape:path-effect effect="spiro" id="path-effect1538" is_visible="true" lpeversion="1"/>
    <inkscape:path-effect effect="spiro" id="path-effect1534" is_visible="true" lpeversion="1"/>
    <inkscape:path-effect effect="spiro" id="path-effect1522" is_visible="true" lpeversion="1"/>
    <inkscape:path-effect effect="spiro" id="path-effect1518" is_visible="true" lpeversion="1"/>
    <inkscape:path-effect lpeversion="1" is_visible="true" id="path-effect1497" effect="spiro"/>
    <inkscape:path-effect lpeversion="1" is_visible="true" id="path-effect1493" effect="spiro"/>
    <inkscape:path-effect effect="spiro" id="path-effect1498" is_visible="true" lpeversion="1"/>
    <inkscape:path-effect effect="spiro" id="path-effect1494" is_visible="true" lpeversion="1"/>
    <clipPath clipPathUnits="userSpaceOnUse" id="clipPath1581">
      <rect y="-746.16913" x="-15.892686" height="508" width="285.75" id="rect1583" style="opacity:0.708333;fill:#f2f2f2;fill-opacity:1;fill-rule:evenodd;stroke:none;stroke-width:2.71037;stroke-linecap:round;stroke-linejoin:miter;stroke-miterlimit:4;stroke-dasharray:none"/>
    </clipPath>
  </defs>
  <sodipodi:namedview inkscape:lockguides="false" id="base" pagecolor="#ffffff" bordercolor="#666666" borderopacity="1.0" inkscape:pageopacity="0.0" inkscape:pageshadow="2" inkscape:zoom="0.33510688" inkscape:cx="-5195.8063" inkscape:cy="3368.2441" inkscape:document-units="px" inkscape:current-layer="layer1" inkscape:document-rotation="0" showgrid="false" units="px" inkscape:snap-midpoints="true" inkscape:snap-object-midpoints="true" inkscape:snap-center="false" inkscape:snap-bbox="true" inkscape:snap-bbox-edge-midpoints="false" inkscape:snap-global="true" inkscape:snap-bbox-midpoints="true" inkscape:bbox-paths="false" inkscape:bbox-nodes="true" inkscape:window-width="1920" inkscape:window-height="1017" inkscape:window-x="-8" inkscape:window-y="-8" inkscape:window-maximized="1" inkscape:object-paths="true" inkscape:snap-smooth-nodes="true" inkscape:snap-intersection-paths="true"/>
  <metadata id="metadata5">
    <rdf:RDF>
      <cc:Work rdf:about="">
        <dc:format>image/svg+xml</dc:format>
        <dc:type rdf:resource="http://purl.org/dc/dcmitype/StillImage"/>
        <dc:title/>
      </cc:Work>
    </rdf:RDF>
  </metadata>
  <g transform="translate(1643.2041,-1000.0772)" inkscape:label="Layer 1" inkscape:groupmode="layer" id="layer1">
    <g transform="translate(-5.5268437,229.75879)" id="bitLive_Logo_Circular_V2">
      <g id="g1539">
        <g id="g1551">
          <rect style="fill:#44aa00;stroke-width:0.120467" id="rect1554" width="132.29167" height="132.29167" x="-1637.6772" y="770.31842" ry="66.145836"/>
          <path id="path1556" style="color:#000000;font-style:normal;font-variant:normal;font-weight:normal;font-stretch:normal;font-size:medium;line-height:normal;font-family:sans-serif;font-variant-ligatures:normal;font-variant-position:normal;font-variant-caps:normal;font-variant-numeric:normal;font-variant-alternates:normal;font-variant-east-asian:normal;font-feature-settings:normal;font-variation-settings:normal;text-indent:0;text-align:start;text-decoration:none;text-decoration-line:none;text-decoration-style:solid;text-decoration-color:#000000;letter-spacing:normal;word-spacing:normal;text-transform:none;writing-mode:lr-tb;direction:ltr;text-orientation:mixed;dominant-baseline:auto;baseline-shift:baseline;text-anchor:start;white-space:normal;shape-padding:0;shape-margin:0;inline-size:0;clip-rule:nonzero;display:inline;overflow:visible;visibility:visible;opacity:1;isolation:auto;mix-blend-mode:normal;color-interpolation:sRGB;color-interpolation-filters:linearRGB;solid-color:#000000;solid-opacity:1;vector-effect:none;fill:#225500;fill-opacity:1;fill-rule:nonzero;stroke:none;stroke-width:20;stroke-linecap:butt;stroke-linejoin:miter;stroke-miterlimit:4;stroke-dasharray:none;stroke-dashoffset:0;stroke-opacity:1;color-rendering:auto;image-rendering:auto;shape-rendering:auto;text-rendering:auto;enable-background:accumulate;stop-color:#000000;stop-opacity:1" d="m -5888.0586,2936.2969 -4.4648,19.4961 c 46.0391,10.549 88.4478,37.2337 117.8808,74.1738 29.4335,36.9401 45.9746,84.2384 45.9746,131.4707 0,55.1069 -22.8283,110.221 -61.7949,149.1875 -38.9665,38.9664 -94.073,61.795 -149.1797,61.7949 -55.107,-10e-5 -110.2209,-22.8285 -149.1875,-61.7949 -38.9662,-38.9664 -61.7949,-94.0807 -61.7949,-149.1875 V 3026.916 c -7.7257,12.125 -14.4265,24.9708 -19.998,38.4121 v 96.1094 c 0,60.5957 24.8085,120.4766 67.6562,163.3242 42.8478,42.8476 102.7286,67.6543 163.3242,67.6543 60.5957,0 120.4761,-24.8066 163.3242,-67.6543 42.8474,-42.8476 67.6485,-102.7285 67.6485,-163.3242 0,-51.8792 -18.0012,-103.3572 -50.3301,-143.9316 -32.3289,-40.5743 -78.4893,-69.6222 -129.0586,-81.209 z" transform="scale(0.26458334)"/>
          <path id="path1558" style="color:#000000;font-style:normal;font-variant:normal;font-weight:normal;font-stretch:normal;font-size:medium;line-height:normal;font-family:sans-serif;font-variant-ligatures:normal;font-variant-position:normal;font-variant-caps:normal;font-variant-numeric:normal;font-variant-alternates:normal;font-variant-east-asian:normal;font-feature-settings:normal;font-variation-settings:normal;text-indent:0;text-align:start;text-decoration:none;text-decoration-line:none;text-decoration-style:solid;text-decoration-color:#000000;letter-spacing:normal;word-spacing:normal;text-transform:none;writing-mode:lr-tb;direction:ltr;text-orientation:mixed;dominant-baseline:auto;baseline-shift:baseline;text-anchor:start;white-space:normal;shape-padding:0;shape-margin:0;inline-size:0;clip-rule:nonzero;display:inline;overflow:visible;visibility:visible;opacity:1;isolation:auto;mix-blend-mode:normal;color-interpolation:sRGB;color-interpolation-filters:linearRGB;solid-color:#000000;solid-opacity:1;vector-effect:none;fill:#225500;fill-opacity:1;fill-rule:nonzero;stroke:none;stroke-width:20;stroke-linecap:butt;stroke-linejoin:miter;stroke-miterlimit:4;stroke-dasharray:none;stroke-dashoffset:0;stroke-opacity:1;color-rendering:auto;image-rendering:auto;shape-rendering:auto;text-rendering:auto;enable-background:accumulate;stop-color:#000000;stop-opacity:1" d="m -6076.9609,2952.2812 c -6.9172,4.5386 -13.5931,9.4091 -20.0059,14.5938 v 194.5625 c 0,35.8559 12.6068,71.3518 35.2129,99.1836 22.6061,27.8318 54.7649,47.444 89.8594,54.7949 49.6146,10.3924 103.2742,-4.7287 140.1601,-39.5 36.8856,-34.7713 55.1421,-87.4508 47.6934,-137.5918 -6.9748,-46.9497 -36.0496,-89.6112 -77.1992,-113.2676 -41.1496,-23.6563 -92.6523,-27.3205 -136.7344,-9.7226 l 7.418,18.5742 c 38.1516,-15.2305 83.7378,-11.9935 119.3515,8.4805 35.6141,20.4739 61.3524,58.2393 67.3887,98.873 6.4396,43.3492 -9.7512,90.0363 -41.6406,120.0977 -31.8894,30.0613 -79.446,43.4651 -122.3399,34.4804 -30.4785,-6.384 -58.8008,-23.6569 -78.4336,-47.8281 -19.6327,-24.1712 -30.7308,-55.4343 -30.7304,-86.5742 z" transform="scale(0.26458334)"/>
          <path id="path1561" style="fill:#ccffaa;stroke:none;stroke-width:5.29166;stroke-miterlimit:4;stroke-dasharray:none" d="m -1600.5219,809.28932 c -6.9515,5e-5 -12.5474,5.59591 -12.5474,12.54747 v 24.22048 c 0,6.95156 5.5959,12.54844 12.5474,12.54844 h 32.1233 c 6.9515,0 12.5484,-5.59688 12.5484,-12.54844 v -24.22048 c 0,-6.95156 -5.5969,-12.54747 -12.5484,-12.54747 z m 66.9231,8.37651 a 3.5529999,3.5529999 0 0 0 -1.3521,0.28921 l -9.2776,3.99429 a 8.2015136,8.2015136 0 0 0 -4.9576,7.5326 v 4.33187 4.33187 a 8.2015136,8.2015136 0 0 0 4.9576,7.53361 l 9.2776,3.9933 a 3.5529999,3.5529999 0 0 0 4.9576,-3.26294 V 833.8138 821.21796 a 3.5529999,3.5529999 0 0 0 -3.6055,-3.55213 z"/>
        </g>
      </g>
    </g>
  </g>
</svg>